<svg viewBox="1265 65 1005 1005" xmlns="http://www.w3.org/2000/svg" aria-label="E-MOTION logo mark">
  <defs>
    <style>
      .bg-circle { fill: #04adcd; }
      .logo-main { fill: #ffffff; }
      .logo-accent { fill: #0f172a; }
    </style>
  </defs>

  <!-- Background circle (your requested bg color) -->
  <circle cx="1766.48" cy="553.62" r="494.89" class="bg-circle"/>

  <!-- Main logo shape -->
  <path
    class="logo-main"
    transform="translate(-15.04 13.62)"
    d="M2110.75,648.67c-45.68,138.13-176,238-329.22,238-191.16,0-346.68-155.52-346.68-346.68s155.52-346.74,346.68-346.74a344.14,344.14,0,0,1,199.4,63.32,348,348,0,0,1,84.86,85.22l-262.72,262.9L1718,519.57,1893.9,343.64a224.59,224.59,0,0,0-112.37-30c-124.83,0-226.31,101.54-226.31,226.37s101.48,226.31,226.31,226.31c85.34,0,159.8-47.49,198.38-117.43Z"
  />

  <!-- Accent shape -->
  <path
    class="logo-accent"
    transform="translate(-15.04 13.62)"
    d="M2094.08,390.1l-93.35,93.77a224.14,224.14,0,0,1,7.1,56.16,227.39,227.39,0,0,1-6.68,54.71l122.78-.24a347,347,0,0,0-29.85-204.4Z"
  />
</svg>